Patient4_TMGait_0pt4_03_left_17_EMG.mot
version=1
nRows=16
nColumns=33
inDegrees=no
endheader
time	1LAddLong	2LGlutMax	3LGlutMed	4LIliopsoas	5LSemiMemb	6LBicFemLong	7LRecFem	8LVastMed	9LVastLat	10LGasMed	11LTibAnt	12lTibPost	13LPeroneusLong	14LSol	15LExtDigLong	16LFlexDigLong	17RAddLong	18RGlutMax	19RGlutMed	20RIliopsoas	21RSemiMemb	22RBicFemLong	23RRecFem	24RVastMed	25RVastLat	26RGasMed	27RTibAnt	28RTibPost	29RPeroneusLong	30RSol	31RExtDigLong	32RFlexDigLong
23.055	0.001221	-0.041962	-0.089264	0.016785	-0.00473	-0.05661	0.25955	0.000305	0.036011	-0.17548	0.013275	-0.022583	0.1062	-0.090179	-0.018005	0.019073	0.098724	0.088348	-0.54169	0.11749	-0.090485	-0.02243	-0.058594	-0.3775	0.001221	-0.018921	0.1033	-0.013123	-0.60349	0.073395	-0.000763	-0.006866
23.056	0.00351	-0.0383	-0.085907	-0.001068	-0.000458	-0.025482	0.24689	0.003357	0.04425	-0.16541	0.014191	0.002136	-0.006409	-0.041199	-0.015259	0.012207	0.069122	0.10147	-0.56427	0.11551	0.069122	0.003357	-0.12421	-0.38345	0.02243	-0.010223	0.050659	-0.009155	-0.009613	0.02182	-0.00061	-0.002899
23.057	0.004425	-0.019379	-0.15625	0.001984	-0.001678	0.001984	0.26138	-0.001526	0.037231	0.39322	0.012512	0.013733	-0.018768	-0.2005	-0.014648	-0.010376	-0.055847	0.094757	0.48401	-0.005493	0.007019	0.085754	-0.1503	-0.14252	0.11368	-0.002441	-0.072479	-0.010223	-0.85556	-0.13473	-0.000153	-0.00412
23.058	0.006866	-0.00412	-0.14313	0.010223	0.010223	-0.063934	0.23163	-0.002136	0.048218	0.42831	0.021057	0.016327	-0.03891	-0.049591	-0.006256	-0.015564	-0.079346	0.10269	1.4438	-0.050659	0.1207	0.050659	-0.069122	0.18402	0.088501	0.007629	-0.11261	-0.010834	-0.5838	-0.11963	0.001221	-0.005951
23.059	0.006256	0.018616	-0.079041	0.013428	0.026398	-0.14954	0.22186	0.001068	0.05127	-0.04425	0.015259	0.005188	-0.057373	0.090637	-0.021057	-0.021057	-0.085754	0.012817	1.1662	-0.10193	0.17075	-0.054016	-0.00885	0.27817	0.039978	0.001221	-0.041199	-0.009613	0.23666	-0.13153	0.001068	-0.003204
23.06	0.001526	0.003052	-0.088348	0.018311	0.028687	-0.11307	0.22919	-0.000763	0.032959	-0.096436	0.016479	0.013123	0.005493	0.031586	-0.022736	-0.006104	-0.091858	-0.12528	0.7576	-0.075989	0.18677	-0.020599	-0.011902	0.29495	-0.027618	-0.014191	0.036926	-0.01236	0.26886	-0.046997	-0.000916	-0.010681
23.061	-0.000916	0.007935	-0.16007	0.024719	0.016022	-0.15106	0.22751	-0.005493	0.021515	-0.21164	0.001068	0.006714	0.037079	-0.045471	-0.01297	-0.01358	-0.033417	-0.10101	0.88577	-0.078583	0.46432	-0.042877	0.044861	0.14023	-0.10101	-0.019226	0.15045	-0.01236	0.6076	-0.037231	0.000305	-0.011597
23.062	0.003052	0.000153	-0.17929	0.014191	0.003204	-0.094147	0.24918	-0.006866	0.031891	-0.3122	0.014801	0.013275	0.049591	-0.04715	-0.018158	-0.016632	0.029602	-0.12405	0.5336	-0.014801	0.20691	-0.029449	0.039978	0.053558	-0.11932	-0.018158	0.13321	-0.011749	0.79529	-0.038452	-0.002747	-0.00824
23.063	0.007019	0.019073	-0.2269	0.009308	0.001068	-0.031891	0.24307	0.000153	0.036926	-0.37018	0.016327	0.01297	0.014343	-0.083923	-0.033264	0.005341	0.040894	-0.14481	0.37491	-0.00885	0.10727	0.035248	0.025482	-0.074921	-0.1535	-0.006409	0.016022	-0.010681	0.62332	-0.033417	0.003662	-0.002441
23.064	0.006866	0.013275	-0.20187	-0.000458	0.016022	-0.050201	0.26443	-0.000916	0.020294	-0.27542	0.018768	0.000763	-0.004578	-0.079651	0.000305	-0.002899	0.031433	-0.16266	0.25375	-0.02655	0.12344	0.066223	0.048523	-0.12299	-0.17639	-0.00412	-0.12726	-0.00824	0.13184	-0.075684	-0.004883	0.000916
23.065	0.002747	0.06546	-0.15884	0.017548	0.012207	-0.028839	0.26413	0.002747	0.010834	-0.10086	0.015717	0.005188	-0.012817	0.010223	0.044861	-0.000305	-0.006409	-0.074005	-0.081024	0.009155	0.052795	0.074463	0.052948	-0.016022	-0.16388	-0.003815	-0.16632	-0.009766	-1.8793	-0.13306	-0.000458	0.000153
23.066	0.002289	0.062103	-0.17441	0.019379	0.00885	-0.00824	0.27435	0.001221	0.009003	0.018311	0.006409	0.016022	0.008392	0.11536	0.065308	0.003662	-0.033875	-0.10635	-0.55817	-0.003662	0.002289	0.028381	-0.086365	0.073853	-0.12711	-0.005951	-0.010223	-0.012817	-1.7171	-0.035706	0.000153	-0.001831
23.067	0.001221	0.026703	-0.19531	0.021362	0.010223	-0.010376	0.25559	0.000305	-0.001373	-0.034485	0.025787	0.006714	0.033112	0.1239	0.014496	-0.008087	-0.036774	-0.22064	-0.50003	-0.012207	-0.055389	0.026093	-0.33539	0.11734	0.074463	-0.013885	0.0737	-0.009613	-0.69305	0.020752	0.001984	-0.002899
23.068	-0.000458	0.041046	-0.25574	0.019226	0.014801	-0.052643	0.25024	-0.000458	0.005646	0.009308	0.019684	-0.007477	0.028992	0.10178	-0.016174	0.006866	-0.052643	-0.15762	0.52383	-0.11597	0.040436	0.014496	-0.50842	0.30518	0.27191	-0.00824	0.059509	-0.013123	-0.59647	0.043945	-0.000153	-0.011902
23.069	0.007935	0.059357	-0.26642	0.016632	0.009308	-0.046082	0.21713	-0.003815	0.016937	0.13626	0.018921	0.007324	0.065918	0.077972	0.005951	-0.007629	-0.053711	-0.15228	0.94116	-0.1268	0.1297	-0.016022	-0.35812	0.30899	0.22903	-0.002899	-0.063934	-0.007324	0.69382	0.02655	0.003967	-0.012512
23.07	0.007477	0.047455	-0.20798	0.004272	0.007629	-0.041809	0.1976	-0.011292	0.007172	0.37994	0.015869	-0.004425	-0.12238	0.066833	0.024109	0.001221	-0.015717	-0.28458	0.45303	-0.070648	0.021057	-0.01297	-0.14771	0.16769	0.17853	-0.005341	-0.049896	-0.007324	1.6435	0.013733	-0.006561	-0.014038
